<?xml version="1.0" standalone="no"?>
<!DOCTYPE svg PUBLIC "-//W3C//DTD SVG 20010904//EN"
 "http://www.w3.org/TR/2001/REC-SVG-20010904/DTD/svg10.dtd">
<svg version="1.0" xmlns="http://www.w3.org/2000/svg"
 width="1024.000000pt" height="1024.000000pt" viewBox="0 0 1024.000000 1024.000000"
 preserveAspectRatio="xMidYMid meet">
<metadata>
Created by potrace 1.11, written by Peter Selinger 2001-2013
</metadata>
<g transform="translate(0.000000,1024.000000) scale(0.100000,-0.100000)"
fill="#000000" stroke="none">
<path d="M0 5120 l0 -5120 5120 0 5120 0 0 5120 0 5120 -5120 0 -5120 0 0
-5120z m8874 3838 c75 -23 113 -75 187 -253 223 -537 344 -1049 389 -1644 21
-278 12 -772 -19 -1071 -99 -947 -428 -1805 -969 -2525 -520 -693 -1160 -1187
-1882 -1452 -715 -262 -1571 -334 -2157 -182 -572 148 -1158 533 -1534 1006
-34 43 -66 78 -70 78 -17 0 -282 -241 -398 -360 -293 -303 -465 -543 -631
-881 -82 -166 -109 -210 -152 -253 -133 -133 -321 -183 -489 -131 -244 75
-397 343 -334 584 18 68 137 311 231 468 212 358 415 611 788 983 464 462 967
828 1501 1090 532 261 1241 485 1880 594 399 68 698 97 1155 110 215 7 273 11
305 25 88 38 134 111 135 214 0 71 -18 124 -58 165 -68 72 -114 78 -473 67
-850 -28 -1581 -151 -2284 -385 -573 -191 -1149 -477 -1604 -794 -56 -40 -107
-69 -111 -64 -26 29 -38 381 -19 583 63 683 335 1256 834 1756 455 456 960
713 1594 811 166 26 168 26 1041 33 899 7 926 9 1135 52 682 140 1309 586
1681 1197 64 105 120 159 184 175 69 18 93 19 144 4z"/>
</g>
</svg>
